# xmcd
#
# Track frame offsets: 
#        150
#        3360
#        20448
#        36690
#        54448
#        72085
#        88248
#        103848
#        117875
#        141328
#        153098
#        168755
#        188468
#        206378
#        223420
#
# Disc length: 3181 seconds
#
# Revision: 2
# Processed by: cddbd v1.5.2PL0 Copyright (c) Steve Scherf et al.
# Submitted via: ExactAudioCopy v1.0b3
#
DISCID=cd0c6b0f
DTITLE=Price, Toni - Sol Power
DYEAR=1997
DGENRE=Blues
TTITLE0=Pennies On The Tracks
TTITLE1=The Old Fiddler's Waltz
TTITLE2=Cats And Dogs
TTITLE3=Like The Sun
TTITLE4=Freeway
TTITLE5=#1
TTITLE6=Burnin' Down
TTITLE7=Run, Run, Run
TTITLE8=Funky
TTITLE9=What's It Take?
TTITLE10=Blue Sky Lonely
TTITLE11=Sarah
TTITLE12=A West Texas Lullaby
TTITLE13=Trainfare
TTITLE14=Alpine Afternoon
EXTD=
EXTT0=
EXTT1=
EXTT2=
EXTT3=
EXTT4=
EXTT5=
EXTT6=
EXTT7=
EXTT8=
EXTT9=
EXTT10=
EXTT11=
EXTT12=
EXTT13=
EXTT14=
PLAYORDER=
